#!OML:ASF F:\VICON\USERDATA\INSTALL\rory3\rory3.ASF
:FULLY-SPECIFIED
:DEGREES
1104
root 6.43047 17.5872 1.41675 342.075 -77.8208 27.5555
lowerback 4.58455 -0.59143 -3.3497
upperback 3.32956 -0.971612 2.15505
thorax 0.952575 -0.593369 4.13883
lowerneck -13.7397 -1.9657 -13.0012
upperneck 40.4382 -0.230712 -1.12359
head 17.2699 -2.77493 1.5833
rclavicle 1.35174e-014 9.54166e-015
rhumerus -12.977 18.5507 -66.1061
rradius 41.6159
rwrist 43.3294
rhand -28.8706 0.63258
rfingers 7.12502
rthumb -2.22673 -29.3355
lclavicle 1.35174e-014 9.54166e-015
lhumerus -27.4924 2.21131 84.1853
lradius 39.6307
lwrist -8.44347
lhand -14.3734 23.6959
lfingers 7.12502
lthumb 11.7691 53.3452
rfemur -29.0463 -4.19076 15.5407
rtibia 74.5796
rfoot -12.5166 0.227944
rtoes -13.766
lfemur -25.7371 4.47496 -33.3609
ltibia 26.9317
lfoot -6.83831 -10.43
ltoes 4.4253
1105
root 6.39537 17.5825 1.38753 344.178 -76.7896 25.4767
lowerback 4.64089 -0.51982 -3.33256
upperback 3.35154 -0.874914 1.98763
thorax 0.930935 -0.542007 3.95256
lowerneck -13.4366 -2.009 -12.5849
upperneck 40.3354 -0.486907 -1.03901
head 17.138 -2.78464 1.51265
rclavicle 7.15625e-015 7.15625e-015
rhumerus -13.4856 18.4663 -66.3172
rradius 41.2957
rwrist 43.6961
rhand -28.0927 0.963971
rfingers 7.12502
rthumb -1.47544 -29.0107
lclavicle 7.15625e-015 7.15625e-015
lhumerus -27.2714 1.15642 84.1866
lradius 39.8653
lwrist -8.25321
lhand -14.832 24.217
lfingers 7.12502
lthumb 11.3268 53.8911
rfemur -30.3806 -3.83794 15.5415
rtibia 76.2841
rfoot -12.0863 1.82545
rtoes -16.3357
lfemur -25.5635 4.27249 -33.3511
ltibia 26.8672
lfoot -7.05893 -11.127
ltoes 2.57632
1106
root 6.3683 17.5383 1.35423 345.798 -75.6307 23.8942
lowerback 4.75699 -0.491718 -3.31479
upperback 3.36435 -0.837788 1.7829
thorax 0.871904 -0.519153 3.73032
lowerneck -13.1673 -2.18123 -12.3596
upperneck 40.228 -0.899666 -0.884502
head 17.031 -2.87829 1.47796
rclavicle -6.75868e-015 -3.97569e-015
rhumerus -13.9997 18.6259 -66.541
rradius 41.0596
rwrist 43.9843
rhand -27.5007 0.390355
rfingers 7.12502
rthumb -0.903715 -29.5875
lclavicle -6.75868e-015 -3.97569e-015
lhumerus -27.0565 0.33056 84.1317
lradius 40.0973
lwrist -8.22056
lhand -14.7579 24.4668
lfingers 7.12502
lthumb 11.3983 54.137
rfemur -31.8998 -2.84319 15.6072
rtibia 78.1287
rfoot -12.2392 2.39898
rtoes -17.775
lfemur -25.53 4.07563 -33.5446
ltibia 26.9032
lfoot -7.65182 -11.6904
ltoes -2.24631
1107
root 6.33044 17.558 1.33279 347.935 -74.5172 21.7183
lowerback 4.80994 -0.50291 -2.99223
upperback 3.43791 -0.84251 1.65487
thorax 0.910383 -0.516755 3.41581
lowerneck -13.0591 -2.40546 -12.3885
upperneck 40.1635 -1.32946 -0.606298
head 16.9997 -3.00396 1.53754
rclavicle 1.27222e-014 1.11319e-014
rhumerus -14.4356 18.7663 -66.7121
rradius 40.7703
rwrist 44.1791
rhand -27.2861 -0.658194
rfingers 7.12502
rthumb -0.696429 -30.6368
lclavicle 1.27222e-014 1.11319e-014
lhumerus -26.8052 0.00577838 84.0445
lradius 40.1767
lwrist -8.53515
lhand -14.8613 24.2318
lfingers 7.12502
lthumb 11.2985 53.9075
rfemur -33.2519 -3.18165 15.7269
rtibia 79.6941
rfoot -11.7405 3.41349
rtoes -18.6879
lfemur -25.3558 3.52165 -33.3012
ltibia 26.8828
lfoot -7.83188 -12.1612
ltoes -3.08984
1108
root 6.29273 17.5844 1.31671 350.246 -73.4354 19.3398
lowerback 4.90248 -0.565354 -2.56005
upperback 3.5028 -0.913432 1.65902
thorax 0.923252 -0.546556 3.17972
lowerneck -13.0714 -2.60693 -12.5584
upperneck 40.1531 -1.62299 -0.431829
head 17.0276 -3.11498 1.5955
rclavicle 6.75868e-015 -3.4191e-014
rhumerus -14.7968 18.8524 -66.786
rradius 40.3852
rwrist 44.6136
rhand -27.2165 -1.35567
rfingers 7.12502
rthumb -0.629205 -31.3345
lclavicle 6.75868e-015 -3.4191e-014
lhumerus -26.5944 -0.0545326 84.0238
lradius 40.2481
lwrist -8.83417
lhand -14.8902 24.0154
lfingers 7.12502
lthumb 11.2706 53.6927
rfemur -34.5672 -3.18518 16.0193
rtibia 81.296
rfoot -11.4737 4.08041
rtoes -19.3093
lfemur -25.0466 2.50526 -32.6251
ltibia 26.6619
lfoot -7.07467 -12.6955
ltoes 1.8275
1109
root 6.25767 17.6025 1.29766 351.562 -72.4431 17.9998
lowerback 5.08701 -0.645566 -2.5046
upperback 3.4814 -1.02177 1.72502
thorax 0.80679 -0.598353 3.22405
lowerneck -12.9646 -2.67729 -12.7245
upperneck 40.1181 -1.67986 -0.431576
head 16.994 -3.15555 1.61693
rclavicle 5.76476e-014 -1.43125e-014
rhumerus -15.168 19.0185 -66.8851
rradius 39.9939
rwrist 45.3687
rhand -27.0704 -2.01522
rfingers 7.12502
rthumb -0.488074 -31.9944
lclavicle 5.76476e-014 -1.43125e-014
lhumerus -26.6223 -0.00393246 84.1271
lradius 40.4829
lwrist -8.8487
lhand -14.924 23.99
lfingers 7.12502
lthumb 11.238 53.6689
rfemur -35.9913 -3.15674 16.0876
rtibia 82.8734
rfoot -11.2886 4.60662
rtoes -19.8972
lfemur -24.6284 1.63063 -32.2213
ltibia 26.1553
lfoot -6.4353 -13.1788
ltoes 3.24109
1110
root 6.22992 17.5589 1.26355 351.988 -71.4032 17.5937
lowerback 5.37773 -0.772409 -2.88696
upperback 3.41391 -1.21129 1.80076
thorax 0.600884 -0.695335 3.53234
lowerneck -12.7433 -2.65394 -12.82
upperneck 39.9793 -1.61355 -0.493085
head 16.861 -3.13915 1.6229
rclavicle -5.20816e-014 -2.38542e-014
rhumerus -15.5016 19.5161 -67.0814
rradius 39.7093
rwrist 45.8868
rhand -26.6797 -3.24094
rfingers 7.12502
rthumb -0.110733 -33.2207
lclavicle -5.20816e-014 -2.38542e-014
lhumerus -26.7687 0.135809 84.272
lradius 40.7963
lwrist -8.66478
lhand -15.1663 24.1233
lfingers 7.12502
lthumb 11.0044 53.8148
rfemur -37.7511 -3.18249 15.923
rtibia 84.7166
rfoot -11.2754 4.85862
rtoes -19.6215
lfemur -24.2535 2.7375 -33.0621
ltibia 25.7097
lfoot -9.73979 -13.9488
ltoes -18.2107
1111
root 6.19719 17.5685 1.23655 352.557 -70.4219 17.0226
lowerback 5.64843 -0.837319 -3.1501
upperback 3.38036 -1.31551 1.84616
thorax 0.432636 -0.748113 3.73896
lowerneck -12.6564 -2.71302 -12.8283
upperneck 39.9356 -1.69328 -0.506962
head 16.8233 -3.16661 1.60702
rclavicle -1.94809e-014 -1.66979e-014
rhumerus -15.9343 19.7841 -67.2752
rradius 39.4611
rwrist 46.349
rhand -26.5307 -4.04663
rfingers 7.12502
rthumb 0.033151 -34.0264
lclavicle -1.94809e-014 -1.66979e-014
lhumerus -26.8367 0.0577244 84.3206
lradius 41.1197
lwrist -8.51588
lhand -15.3573 24.1336
lfingers 7.12502
lthumb 10.8201 53.8349
rfemur -39.3099 -3.19758 15.819
rtibia 86.2972
rfoot -11.3934 4.81973
rtoes -19.5647
lfemur -23.9634 2.68148 -33.2246
ltibia 25.29
lfoot -11.3958 -14.4102
ltoes -25.4307
1112
root 6.16097 17.6289 1.21903 353.558 -69.5473 16.0045
lowerback 5.77778 -0.768775 -3.04089
upperback 3.4296 -1.22313 1.80197
thorax 0.399587 -0.700261 3.62908
lowerneck -12.6896 -2.92854 -12.7745
upperneck 40.0046 -2.08188 -0.322085
head 16.8998 -3.28641 1.61325
rclavicle 3.97569e-016 2.14687e-014
rhumerus -16.4322 19.3681 -67.4157
rradius 39.0831
rwrist 47.3313
rhand -26.8686 -4.06259
rfingers 7.12502
rthumb -0.293138 -34.0421
lclavicle 3.97569e-016 2.14687e-014
lhumerus -26.682 -0.386634 84.2829
lradius 41.3784
lwrist -8.37731
lhand -15.1582 23.7419
lfingers 7.12502
lthumb 11.0122 53.4331
rfemur -40.6755 -3.08807 15.8815
rtibia 87.5909
rfoot -11.6047 4.73851
rtoes -19.4499
lfemur -23.6683 0.632845 -32.1853
ltibia 24.9333
lfoot -8.60443 -15.0768
ltoes -12.2174
1113
root 6.12542 17.6488 1.19711 354.341 -68.6426 15.1989
lowerback 5.90844 -0.727796 -2.94913
upperback 3.47817 -1.16815 1.78209
thorax 0.369764 -0.671742 3.55594
lowerneck -12.5981 -3.09738 -12.8593
upperneck 39.9657 -2.39928 -0.0817097
head 16.8864 -3.38484 1.68385
rclavicle -6.63941e-014 2.06736e-014
rhumerus -16.8866 19.2967 -67.5036
rradius 38.7276
rwrist 47.9584
rhand -27.0249 -4.33182
rfingers 7.12502
rthumb -0.444131 -34.3111
lclavicle -6.63941e-014 2.06736e-014
lhumerus -26.5538 -0.64504 84.3707
lradius 41.6136
lwrist -8.26407
lhand -15.0286 23.5444
lfingers 7.12502
lthumb 11.1372 53.2288
rfemur -42.1899 -3.01643 15.8888
rtibia 88.9616
rfoot -11.7807 4.74953
rtoes -18.4781
lfemur -23.4734 0.0567418 -31.8862
ltibia 24.8121
lfoot -8.19825 -15.4814
ltoes -9.66271
1114
root 6.09479 17.6657 1.16517 355.052 -67.6326 14.5422
lowerback 6.12083 -0.769572 -3.09402
upperback 3.47 -1.23597 1.86764
thorax 0.254941 -0.706418 3.73459
lowerneck -12.4916 -3.19454 -12.9031
upperneck 39.8321 -2.52154 -0.0924563
head 16.8005 -3.42763 1.66968
rclavicle 8.74653e-015 0
rhumerus -17.2713 19.574 -67.5836
rradius 38.4743
rwrist 48.1422
rhand -26.8251 -5.14713
rfingers 7.12502
rthumb -0.25113 -35.1267
lclavicle 8.74653e-015 0
lhumerus -26.4928 -0.742739 84.524
lradius 41.9134
lwrist -7.95205
lhand -14.9792 23.5574
lfingers 7.12502
lthumb 11.1849 53.2393
rfemur -43.8449 -3.11682 15.8763
rtibia 90.3259
rfoot -11.7672 4.82207
rtoes -16.024
lfemur -23.5048 -0.328129 -31.654
ltibia 24.9039
lfoot -7.33869 -16.0611
ltoes -3.89309
1115
root 6.06079 17.6805 1.1346 355.884 -66.7657 13.7349
lowerback 6.29405 -0.800796 -3.3036
upperback 3.48896 -1.2934 2.06451
thorax 0.194231 -0.739859 4.06444
lowerneck -12.4632 -3.29134 -12.9495
upperneck 39.7287 -2.59134 -0.208624
head 16.7472 -3.46602 1.61597
rclavicle -5.20816e-014 3.18055e-015
rhumerus -17.5447 19.8732 -67.5392
rradius 38.1543
rwrist 48.3913
rhand -26.6246 -5.85611
rfingers 7.12502
rthumb -0.0574696 -35.8358
lclavicle -5.20816e-014 3.18055e-015
lhumerus -26.4668 -0.642719 84.7129
lradius 42.257
lwrist -7.51761
lhand -15.1181 23.5796
lfingers 7.12502
lthumb 11.0508 53.2687
rfemur -45.512 -3.06759 15.9937
rtibia 91.6624
rfoot -11.7163 4.94518
rtoes -13.5437
lfemur -23.4488 -0.905496 -31.2946
ltibia 24.8442
lfoot -6.12126 -15.9922
ltoes 3.82674
1116
root 6.02515 17.6729 1.10745 356.647 -65.9926 12.9943
lowerback 6.39935 -0.762083 -3.44922
upperback 3.51118 -1.25291 2.25748
thorax 0.16375 -0.723951 4.34769
lowerneck -12.391 -3.43226 -13.0514
upperneck 39.7038 -2.7595 -0.24027
head 16.7369 -3.54614 1.59194
rclavicle -2.34566e-014 -1.35174e-014
rhumerus -17.8802 19.9548 -67.3901
rradius 37.7831
rwrist 48.7644
rhand -26.6759 -6.50443
rfingers 7.12502
rthumb -0.107025 -36.4841
lclavicle -2.34566e-014 -1.35174e-014
lhumerus -26.4857 -0.599909 84.9816
lradius 42.6484
lwrist -7.01282
lhand -15.2018 23.7437
lfingers 7.12502
lthumb 10.9701 53.4371
rfemur -47.2931 -2.65215 16.0582
rtibia 93.0642
rfoot -11.4971 5.2873
rtoes -13.001
lfemur -23.3942 -1.61965 -30.962
ltibia 24.8175
lfoot -5.7291 -15.6559
ltoes 6.7015
1117
root 5.98891 17.6876 1.08111 357.041 -65.2037 12.6104
lowerback 6.50665 -0.71525 -3.59472
upperback 3.55131 -1.20203 2.3287
thorax 0.146119 -0.702025 4.50349
lowerneck -12.3158 -3.54734 -13.1154
upperneck 39.6994 -2.93463 -0.180735
head 16.7354 -3.61217 1.60133
rclavicle -5.1684e-015 5.56597e-015
rhumerus -18.2816 19.7892 -67.3582
rradius 37.4618
rwrist 49.3249
rhand -26.8465 -7.16626
rfingers 7.12502
rthumb -0.271859 -37.1458
lclavicle -5.1684e-015 5.56597e-015
lhumerus -26.5398 -0.65482 85.1532
lradius 43.1015
lwrist -6.62367
lhand -14.9627 23.8313
lfingers 7.12502
lthumb 11.2007 53.5123
rfemur -48.9581 -2.64779 15.917
rtibia 94.2743
rfoot -11.1306 6.145
rtoes -14.1303
lfemur -23.2071 -2.21281 -30.8015
ltibia 24.6721
lfoot -5.67776 -15.6065
ltoes 6.32388
1118
root 5.95594 17.6936 1.04978 357.699 -64.4126 11.9504
lowerback 6.67846 -0.709067 -3.58527
upperback 3.57504 -1.19864 2.40112
thorax 0.0766728 -0.700226 4.57698
lowerneck -12.2206 -3.63412 -13.1155
upperneck 39.6 -3.08374 -0.120624
head 16.6718 -3.65293 1.60662
rclavicle 6.75868e-015 -1.11319e-014
rhumerus -18.6366 19.4648 -67.4327
rradius 37.1371
rwrist 49.906
rhand -27.0454 -7.79482
rfingers 7.12502
rthumb -0.463914 -37.7741
lclavicle 6.75868e-015 -1.11319e-014
lhumerus -26.606 -0.504551 85.2129
lradius 43.4796
lwrist -6.60328
lhand -14.8091 23.5723
lfingers 7.12502
lthumb 11.3489 53.2452
rfemur -50.6759 -2.71354 16.0145
rtibia 95.4471
rfoot -10.8515 6.92791
rtoes -15.2571
lfemur -23.0614 -2.60222 -30.526
ltibia 24.446
lfoot -5.42338 -15.8213
ltoes 6.36773
